<svg width="162" height="162" viewBox="0 0 162 162" fill="none" xmlns="http://www.w3.org/2000/svg">
<path fill-rule="evenodd" clip-rule="evenodd" d="M81 162C125.735 162 162 125.735 162 81C162 36.2649 125.735 0 81 0C36.2649 0 0 36.2649 0 81C0 125.735 36.2649 162 81 162ZM87.8287 46.601C84.3222 43.133 78.6778 43.133 75.1713 46.601L29.6713 91.601C26.1372 95.0962 26.1057 100.795 29.601 104.329C33.0962 107.863 38.7946 107.894 42.3287 104.399L81.5 65.6582L120.671 104.399C124.205 107.894 129.904 107.863 133.399 104.329C136.894 100.795 136.863 95.0962 133.329 91.601L87.8287 46.601Z" fill="#FF0000" fill-opacity="0.6"/>
</svg>
